<?xml version="1.0" encoding="utf-8"?>
<!-- Generator: Adobe Illustrator 24.1.2, SVG Export Plug-In . SVG Version: 6.00 Build 0)  -->
<svg version="1.1" id="Layer_0_xA0_Image_1_" xmlns="http://www.w3.org/2000/svg" xmlns:xlink="http://www.w3.org/1999/xlink"
	 x="0px" y="0px" viewBox="0 0 324 259.2" style="enable-background:new 0 0 324 259.2;" xml:space="preserve">
<style type="text/css">
	.st0{fill:#8A0B00;}
	.st1{fill:#0000BF;}
	.st2{display:none;fill:#F42200;}
</style>
<g>
	<path class="st0" d="M164.16,59.04c17.94,2.43,34.06,8.99,45.72,23.31c4.59,3.77,10.29,1.48,16.52,2.03
		c-10.07,8.15-14.84,19.24-29.2,17.61c-15.5-0.6-30.83-0.1-46.37-0.16c0,7.47,0,14.59,0,21.89c-5.86,0-11.3,0-16.91,0
		c0-13.09,0-26,0-39.2c20.2,0,40.31,0,61.02,0c-48.15-43.95-115.62,28.22-68.96,73.98c3.36,2.76,2.67,11.63,1.36,15.4
		C73.41,140.05,101.41,58.09,164.16,59.04z"/>
	<path class="st1" d="M197.53,130.49c-4.62,4.69-9.18,9.45-13.93,14c-0.88,0.85-2.57,1.17-3.9,1.18
		c-9.65,0.12-19.18,0.05-28.84,0.06c0,8.84,0,17.32,0,26.37c34.76,7.39,68.1-23.21,60.47-60.25c-0.96-5.93,5.06-7.94,8.07-13.06
		c16.87,40.42-14.21,86.03-57.42,85.95c-15.65-3.52-17.38,6.74-27.89,15.9c0-24.12,0-47.39,0-70.9c21.13-0.46,42.52-0.49,63.67,0.01
		C197.68,130,197.61,130.25,197.53,130.49z"/>
	<path class="st2" d="M197.53,130.49c0.07-0.25,0.15-0.49,0.23-0.74c0.19,0.03,0.38,0.05,0.57,0.08
		C198.06,130.06,197.8,130.27,197.53,130.49z"/>
</g>
</svg>
